<svg width="180" height="45" viewBox="0 0 180 45" fill="none" xmlns="http://www.w3.org/2000/svg">
<path d="M175.578 20.4288C172.648 17.568 169.221 16.1376 165.306 16.1376C161.497 16.1376 158.117 17.5901 155.179 20.495C153.685 21.9677 152.575 23.5469 151.838 25.2317C151.13 26.8714 150.766 28.6118 150.766 30.4531C150.766 30.8678 150.785 31.2768 150.823 31.68C151.101 35.0784 152.565 38.0726 155.207 40.6589C158.175 43.5533 161.669 45 165.699 45C169.47 45 172.792 43.536 175.664 40.609C178.536 37.6819 179.971 34.297 179.971 30.4531C179.971 26.6314 178.507 23.2896 175.578 20.4288ZM177.865 44.976C176.688 44.976 175.721 44.0122 175.721 42.8294C175.721 41.6438 176.688 40.681 177.865 40.681C179.043 40.681 180 41.6438 180 42.8294C180 44.0122 179.043 44.976 177.865 44.976ZM129.754 31.68C130.252 34.4755 131.401 36.5165 133.191 37.8048C134.981 39.0922 136.924 39.7354 139.03 39.7354C142.285 39.7354 145.003 38.3818 146.248 36.8995L150.421 40.0694C148.239 42.9168 144.036 44.952 138.772 44.952C134.732 44.952 131.353 43.5658 128.634 40.7923C125.906 38.0189 124.547 34.5754 124.547 30.4589C124.547 26.6074 125.925 23.2675 128.682 20.4394C131.439 17.6112 134.799 16.1971 138.772 16.1971C142.677 16.1971 146.027 17.6333 148.813 20.5056C149.608 21.3254 150.287 22.2182 150.852 23.1782C149.598 25.4218 148.966 27.8544 148.966 30.4531C148.966 30.8669 148.985 31.2758 149.014 31.68H129.754ZM50.0542 15.8064H58.6408V29.4586C58.6408 31.4256 59.1385 33.0653 60.1436 34.3795C61.1391 35.6938 62.3739 36.3514 63.8481 36.3514C65.4084 36.3514 66.7198 35.7158 67.7824 34.4458C68.8449 33.1757 69.381 31.5792 69.381 29.6573V15.8064H77.977V32.375C77.977 35.8867 76.6369 38.831 73.9662 41.2061C71.2859 43.5802 67.9643 44.7677 63.9821 44.7677C59.7511 44.7677 56.3816 43.5744 53.845 41.1888C51.3178 38.8032 50.0542 35.6333 50.0542 31.679V15.8064ZM177.865 40.9459C176.832 40.9459 175.989 41.7907 175.989 42.8294C175.989 43.8653 176.832 44.7101 177.865 44.7101C178.899 44.7101 179.742 43.8653 179.742 42.8294C179.742 41.7907 178.899 40.9459 177.865 40.9459ZM29.4065 44.2378H21.0785V39.3667H20.9445C18.4844 42.9235 15.4211 44.7015 11.774 44.7015C8.5194 44.7015 5.74344 43.2768 3.44605 40.4266C1.14867 37.5773 0 34.0973 0 29.9885C0 25.8797 1.18695 22.3728 3.56092 19.4678C5.93488 16.5629 8.77794 15.1104 12.0996 15.1104C13.9949 15.1104 15.5839 15.4579 16.8858 16.1539C18.1876 16.8499 19.5181 17.9827 20.8774 19.5504V0H29.4065V44.2378ZM40.2616 44.2378H31.6656V15.7402H40.1276V19.9478H40.2616C41.0944 18.5347 42.0708 17.4134 43.1812 16.585C44.2916 15.7565 45.3255 15.3427 46.2731 15.3427C46.8475 15.3427 47.3644 15.3869 47.8239 15.4752V24.7526C47.1155 24.6202 46.4262 24.5539 45.7466 24.5539C44.0044 24.5539 42.6547 25.1674 41.6975 26.3933C40.7402 27.6192 40.2616 29.3376 40.2616 31.5466V44.2378ZM88.612 15.7402V20.28C89.0045 20.015 89.5884 19.5062 90.3542 18.7555C91.1296 18.0048 91.8762 17.3693 92.5846 16.8499C93.3025 16.3315 94.164 15.911 95.1691 15.5904C96.1646 15.2707 97.0741 15.1104 97.8877 15.1104C99.1896 15.1104 100.597 15.5693 102.119 16.4851C103.641 17.4029 104.904 19.032 105.919 21.3734C107.68 19.1203 109.403 17.5123 111.088 16.5514C112.773 15.5904 114.343 15.1104 115.798 15.1104C118.382 15.1104 120.555 16.176 122.345 18.3082C123.417 19.5965 124.174 21.0653 124.595 22.7117C123.427 25.0771 122.833 27.6643 122.833 30.4522C122.833 33.7478 123.571 36.721 125.016 39.3446V44.2378H116.564V28.4314C116.564 26.8627 116.133 25.5427 115.271 24.4714C114.41 23.4 113.376 22.8643 112.17 22.8643C110.715 22.8643 109.461 23.472 108.398 24.6864C107.345 25.9018 106.809 27.3494 106.809 29.0275V44.2378H98.4237V28.8288C98.4237 27.1718 97.9834 25.775 97.1123 24.6374C96.2412 23.4998 95.1979 22.9306 93.9631 22.9306C92.508 22.9306 91.254 23.5546 90.1915 24.8026C89.1385 26.0515 88.612 27.5482 88.612 29.2925V44.2378H80.083V15.7402H88.612ZM177.415 43.9805H177.128V41.6688H177.942C178.382 41.6688 178.708 41.8714 178.708 42.3437C178.708 42.6509 178.497 42.9667 178.172 42.9667C178.21 43.0051 178.248 43.0406 178.267 43.0858L178.803 43.9805H178.459L178.019 43.2384C177.942 43.1155 177.865 42.9926 177.712 42.9926H177.415V43.9805ZM177.942 41.9635H177.415V42.7354H177.942C178.21 42.7354 178.411 42.6509 178.411 42.3437C178.411 42.0374 178.21 41.9635 177.942 41.9635ZM174.381 31.3478C174.237 32.7523 173.759 34.0454 172.945 35.2301C173.012 35.4019 173.06 35.591 173.06 35.7898C173.06 36.5597 172.438 37.1837 171.672 37.1837C171.519 37.1837 171.375 37.1587 171.241 37.1155C169.92 38.2637 168.456 38.9606 166.838 39.2026C166.666 39.7776 166.13 40.1971 165.507 40.1971C164.876 40.1971 164.349 39.7814 164.177 39.2102C162.559 38.9885 161.104 38.353 159.793 37.3027C159.62 37.3718 159.448 37.4093 159.257 37.4093C158.491 37.4093 157.869 36.7853 157.869 36.0163C157.869 35.8147 157.907 35.6246 157.983 35.4518C157.064 34.2134 156.538 32.8474 156.414 31.3526C155.906 31.1472 155.542 30.6461 155.542 30.0605C155.542 29.4058 155.992 28.8576 156.605 28.7088C156.873 27.5366 157.38 26.4566 158.146 25.4726C158.117 25.3469 158.089 25.2144 158.089 25.0771C158.089 24.3072 158.711 23.6832 159.486 23.6832C159.62 23.6832 159.754 23.7043 159.879 23.7427C161.152 22.7472 162.578 22.1405 164.167 21.9264C164.32 21.3331 164.866 20.8954 165.507 20.8954C166.149 20.8954 166.685 21.335 166.847 21.9293C168.513 22.1654 170.006 22.8557 171.327 23.9952C171.433 23.9674 171.548 23.951 171.672 23.951C172.438 23.951 173.06 24.575 173.06 25.345C173.06 25.5091 173.031 25.6656 172.974 25.8125C173.606 26.713 174.027 27.6845 174.247 28.7251C174.821 28.897 175.243 29.4298 175.243 30.0605C175.243 30.6413 174.888 31.1386 174.381 31.3478ZM14.6458 23.5267C13.2673 23.5267 11.9655 24.168 10.7594 25.4486C9.55328 26.7302 8.9502 28.464 8.9502 30.6518C8.9502 32.3971 9.4863 33.888 10.5488 35.1245C11.6114 36.3629 12.9036 36.9811 14.416 36.9811C16.2252 36.9811 17.7282 36.312 18.9343 34.9757C20.1404 33.6394 20.7434 31.9766 20.7434 29.9885C20.7434 28.2653 20.1595 26.7581 18.9821 25.4659C17.8047 24.1728 16.3592 23.5267 14.6458 23.5267ZM146.937 27.0912C145.089 23.3501 142.371 21.479 138.772 21.479C134.847 21.479 132.033 23.3501 130.348 27.0912H146.937Z" fill="#0B76DB"/>
</svg>
