<svg width="18" height="18" viewBox="0 0 18 18" fill="none" xmlns="http://www.w3.org/2000/svg">
<path d="M0 9C0 11.3869 0.948212 13.6761 2.63604 15.364C4.32387 17.0518 6.61305 18 9 18C11.3869 18 13.6761 17.0518 15.364 15.364C17.0518 13.6761 18 11.3869 18 9C18 6.61305 17.0518 4.32387 15.364 2.63604C13.6761 0.948212 11.3869 0 9 0C6.61305 0 4.32387 0.948212 2.63604 2.63604C0.948212 4.32387 0 6.61305 0 9ZM6.075 9.7875C5.79375 9.41484 5.87109 8.8875 6.24375 8.60625C6.61641 8.325 7.14375 8.40234 7.425 8.775L8.37422 10.0406L10.5328 6.58477C10.7789 6.19102 11.2992 6.06797 11.6965 6.31758C12.0938 6.56719 12.2133 7.08398 11.9637 7.48125L9.15117 11.9812C9.00352 12.2168 8.75039 12.3645 8.47266 12.3785C8.19492 12.3926 7.92773 12.266 7.7625 12.041L6.075 9.79102V9.7875Z" fill="#0B76DB"/>
<path d="M11.6965 6.31399C12.0902 6.56008 12.2133 7.08039 11.9637 7.47766L9.15116 11.9777C9.0035 12.2132 8.75038 12.3609 8.47264 12.3749C8.19491 12.389 7.92772 12.2624 7.76249 12.0374L6.07499 9.78742C5.79374 9.41477 5.87108 8.88742 6.24374 8.60617C6.61639 8.32492 7.14374 8.40227 7.42499 8.77492L8.37421 10.0405L10.5328 6.58469C10.7789 6.19094 11.2992 6.06789 11.6965 6.3175V6.31399Z" fill="#FAFAFB"/>
</svg>
