<svg width="152" height="38" viewBox="0 0 152 38" fill="none" xmlns="http://www.w3.org/2000/svg">
<path d="M147.596 17.0421C145.145 14.6556 142.278 13.4623 139.003 13.4623C135.816 13.4623 132.989 14.674 130.53 17.0974C129.281 18.3259 128.352 19.6433 127.735 21.0488C127.142 22.4167 126.838 23.8686 126.838 25.4046C126.838 25.7506 126.854 26.0918 126.886 26.4281C127.118 29.2632 128.344 31.761 130.554 33.9185C133.037 36.3331 135.96 37.54 139.331 37.54C142.487 37.54 145.266 36.3187 147.668 33.8769C150.071 31.4351 151.272 28.6113 151.272 25.4046C151.272 22.2165 150.047 19.4287 147.596 17.0421ZM149.51 37.52C148.525 37.52 147.716 36.7159 147.716 35.7292C147.716 34.7402 148.525 33.9369 149.51 33.9369C150.495 33.9369 151.296 34.7402 151.296 35.7292C151.296 36.7159 150.495 37.52 149.51 37.52ZM109.259 26.4281C109.676 28.7602 110.637 30.4628 112.134 31.5376C113.632 32.6115 115.258 33.1481 117.02 33.1481C119.742 33.1481 122.017 32.0189 123.058 30.7824L126.55 33.4268C124.724 35.8021 121.208 37.4999 116.803 37.4999C113.424 37.4999 110.597 36.3435 108.322 34.0298C106.04 31.7162 104.903 28.8435 104.903 25.4095C104.903 22.1964 106.056 19.4103 108.362 17.051C110.669 14.6916 113.48 13.512 116.803 13.512C120.071 13.512 122.874 14.7101 125.204 17.1062C125.869 17.7901 126.438 18.5349 126.91 19.3358C125.861 21.2074 125.332 23.2367 125.332 25.4046C125.332 25.7498 125.348 26.091 125.372 26.4281H109.259ZM42.5804 13.186H49.7641V24.575C49.7641 26.2159 50.1805 27.5838 51.0214 28.6801C51.8543 29.7765 52.8874 30.3251 54.1207 30.3251C55.4261 30.3251 56.5233 29.7949 57.4122 28.7354C58.3011 27.6759 58.7497 26.3441 58.7497 24.7407V13.186H65.9413V27.008C65.9413 29.9375 64.8201 32.3937 62.5858 34.375C60.3434 36.3555 57.5644 37.3462 54.2328 37.3462C50.6931 37.3462 47.8741 36.3507 45.7519 34.3606C43.6376 32.3705 42.5804 29.7261 42.5804 26.4273V13.186ZM149.51 34.158C148.645 34.158 147.94 34.8627 147.94 35.7292C147.94 36.5934 148.645 37.2981 149.51 37.2981C150.375 37.2981 151.08 36.5934 151.08 35.7292C151.08 34.8627 150.375 34.158 149.51 34.158ZM25.3061 36.9041H18.3388V32.8406H18.2266C16.1684 35.8077 13.6057 37.2909 10.5544 37.2909C7.83152 37.2909 5.5091 36.1024 3.58705 33.7247C1.66501 31.3478 0.70401 28.4447 0.70401 25.017C0.70401 21.5894 1.69704 18.6639 3.68315 16.2405C5.66926 13.8171 8.04782 12.6054 10.8268 12.6054C12.4125 12.6054 13.7419 12.8953 14.831 13.4759C15.9202 14.0566 17.0333 15.0016 18.1705 16.3094V0H25.3061V36.9041ZM34.3877 36.9041H27.1961V13.1308H34.2756V16.6409H34.3877C35.0845 15.4621 35.9014 14.5267 36.8304 13.8355C37.7594 13.1444 38.6243 12.7992 39.4171 12.7992C39.8976 12.7992 40.3301 12.8361 40.7145 12.9097V20.6492C40.1219 20.5387 39.5452 20.4834 38.9766 20.4834C37.5191 20.4834 36.3899 20.9952 35.589 22.0178C34.7882 23.0405 34.3877 24.4741 34.3877 26.3168V36.9041ZM74.8387 13.1308V16.918C75.1671 16.697 75.6556 16.2725 76.2963 15.6463C76.945 15.02 77.5696 14.4898 78.1623 14.0566C78.7629 13.6241 79.4836 13.2733 80.3245 13.0058C81.1574 12.7392 81.9183 12.6054 82.599 12.6054C83.6882 12.6054 84.8654 12.9882 86.1387 13.7522C87.4121 14.5179 88.4693 15.8769 89.3182 17.8302C90.7917 15.9506 92.2332 14.6092 93.6427 13.8075C95.0522 13.0058 96.3656 12.6054 97.5829 12.6054C99.7452 12.6054 101.563 13.4944 103.061 15.2731C103.958 16.3478 104.59 17.5731 104.943 18.9466C103.966 20.9199 103.469 23.0782 103.469 25.4039C103.469 28.1532 104.086 30.6334 105.295 32.8222V36.9041H98.2236V23.7181C98.2236 22.4095 97.8632 21.3083 97.1424 20.4145C96.4216 19.5208 95.5567 19.0739 94.5477 19.0739C93.3304 19.0739 92.2813 19.5809 91.3923 20.5939C90.5114 21.6078 90.0629 22.8155 90.0629 24.2154V36.9041H83.0474V24.0496C83.0474 22.6673 82.6791 21.5021 81.9503 20.5531C81.2215 19.6041 80.3486 19.1292 79.3156 19.1292C78.0983 19.1292 77.0491 19.6497 76.1601 20.6908C75.2792 21.7327 74.8387 22.9813 74.8387 24.4364V36.9041H67.7032V13.1308H74.8387ZM149.134 36.6895H148.893V34.761H149.574C149.943 34.761 150.215 34.93 150.215 35.324C150.215 35.5803 150.039 35.8438 149.766 35.8438C149.798 35.8758 149.83 35.9054 149.846 35.9431L150.295 36.6895H150.007L149.638 36.0704C149.574 35.9679 149.51 35.8654 149.382 35.8654H149.134V36.6895ZM149.574 35.0069H149.134V35.6508H149.574C149.798 35.6508 149.967 35.5803 149.967 35.324C149.967 35.0685 149.798 35.0069 149.574 35.0069ZM146.595 26.1511C146.475 27.3227 146.074 28.4014 145.394 29.3897C145.45 29.533 145.49 29.6908 145.49 29.8566C145.49 30.4989 144.969 31.0194 144.329 31.0194C144.2 31.0194 144.08 30.9986 143.968 30.9626C142.863 31.9204 141.638 32.5018 140.284 32.7036C140.14 33.1833 139.692 33.5333 139.171 33.5333C138.643 33.5333 138.202 33.1865 138.058 32.71C136.704 32.525 135.487 31.9949 134.39 31.1187C134.246 31.1764 134.102 31.2076 133.942 31.2076C133.301 31.2076 132.78 30.6871 132.78 30.0456C132.78 29.8774 132.812 29.7188 132.876 29.5747C132.108 28.5416 131.667 27.402 131.563 26.155C131.139 25.9837 130.834 25.5656 130.834 25.0771C130.834 24.5309 131.211 24.0736 131.723 23.9495C131.947 22.9717 132.372 22.0707 133.013 21.2498C132.989 21.1449 132.965 21.0344 132.965 20.9199C132.965 20.2776 133.485 19.757 134.134 19.757C134.246 19.757 134.358 19.7747 134.462 19.8067C135.527 18.9762 136.721 18.4701 138.05 18.2915C138.178 17.7966 138.635 17.4314 139.171 17.4314C139.708 17.4314 140.156 17.7982 140.292 18.2939C141.686 18.4909 142.935 19.0667 144.04 20.0173C144.128 19.9941 144.224 19.9805 144.329 19.9805C144.969 19.9805 145.49 20.501 145.49 21.1433C145.49 21.2803 145.466 21.4108 145.418 21.5333C145.946 22.2845 146.299 23.095 146.483 23.9631C146.963 24.1065 147.316 24.5509 147.316 25.0771C147.316 25.5616 147.019 25.9765 146.595 26.1511ZM12.957 19.6265C11.8037 19.6265 10.7146 20.1615 9.70557 21.2298C8.69649 22.2989 8.19195 23.7453 8.19195 25.5704C8.19195 27.0264 8.64046 28.2701 9.5294 29.3016C10.4183 30.3347 11.4994 30.8505 12.7648 30.8505C14.2784 30.8505 15.5358 30.2923 16.5449 29.1775C17.5539 28.0627 18.0584 26.6756 18.0584 25.017C18.0584 23.5795 17.5699 22.3222 16.5848 21.2442C15.5998 20.1655 14.3905 19.6265 12.957 19.6265ZM123.635 22.6001C122.089 19.4791 119.815 17.9183 116.803 17.9183C113.52 17.9183 111.165 19.4791 109.756 22.6001H123.635Z" fill="#879097"/>
</svg>
