<svg width="49" height="49" viewBox="0 0 49 49" fill="none" xmlns="http://www.w3.org/2000/svg">
<path d="M30.043 33.8398H18.8164V32.2109L23.3984 27.5586C24.25 26.6992 24.9648 25.9336 25.543 25.2617C26.1289 24.5898 26.5742 23.9297 26.8789 23.2812C27.1836 22.625 27.3359 21.9062 27.3359 21.125C27.3359 20.1562 27.0469 19.418 26.4688 18.9102C25.8984 18.3945 25.1445 18.1367 24.207 18.1367C23.3867 18.1367 22.6602 18.2773 22.0273 18.5586C21.3945 18.8398 20.7461 19.2383 20.082 19.7539L19.0391 18.4414C19.4922 18.0586 19.9844 17.7188 20.5156 17.4219C21.0547 17.125 21.6289 16.8906 22.2383 16.7188C22.8555 16.5469 23.5117 16.4609 24.207 16.4609C25.2617 16.4609 26.1719 16.6445 26.9375 17.0117C27.7031 17.3789 28.293 17.9023 28.707 18.582C29.1289 19.2617 29.3398 20.0703 29.3398 21.0078C29.3398 21.9141 29.1602 22.7578 28.8008 23.5391C28.4414 24.3125 27.9375 25.082 27.2891 25.8477C26.6406 26.6055 25.8828 27.4102 25.0156 28.2617L21.2891 31.9766V32.0586H30.043V33.8398Z" fill="#0B76DB"/>
<circle cx="24.5" cy="24.8398" r="23" stroke="#0B76DB" stroke-width="2"/>
</svg>
