<svg width="49" height="49" viewBox="0 0 49 49" fill="none" xmlns="http://www.w3.org/2000/svg">
<path d="M29.4102 20.7031C29.4102 21.4688 29.2617 22.1328 28.9648 22.6953C28.668 23.2578 28.2539 23.7188 27.7227 24.0781C27.1914 24.4297 26.5664 24.6758 25.8477 24.8164V24.9102C27.207 25.082 28.2266 25.5195 28.9062 26.2227C29.5938 26.9258 29.9375 27.8477 29.9375 28.9883C29.9375 29.9805 29.7031 30.8594 29.2344 31.625C28.7734 32.3906 28.0625 32.9922 27.1016 33.4297C26.1484 33.8594 24.9258 34.0742 23.4336 34.0742C22.5273 34.0742 21.6875 34 20.9141 33.8516C20.1484 33.7109 19.4141 33.4727 18.7109 33.1367V31.3086C19.4219 31.6602 20.1953 31.9375 21.0312 32.1406C21.8672 32.3359 22.6758 32.4336 23.457 32.4336C25.0195 32.4336 26.1484 32.125 26.8438 31.5078C27.5391 30.8828 27.8867 30.0312 27.8867 28.9531C27.8867 28.2109 27.6914 27.6133 27.3008 27.1602C26.918 26.6992 26.3633 26.3633 25.6367 26.1523C24.918 25.9336 24.0508 25.8242 23.0352 25.8242H21.3242V24.1602H23.0469C23.9766 24.1602 24.7656 24.0234 25.4141 23.75C26.0625 23.4766 26.5547 23.0938 26.8906 22.6016C27.2344 22.1016 27.4062 21.5117 27.4062 20.832C27.4062 19.9648 27.1172 19.2969 26.5391 18.8281C25.9609 18.3516 25.1758 18.1133 24.1836 18.1133C23.5742 18.1133 23.0195 18.1758 22.5195 18.3008C22.0195 18.4258 21.5508 18.5977 21.1133 18.8164C20.6758 19.0352 20.2383 19.2891 19.8008 19.5781L18.8164 18.2422C19.4414 17.7578 20.2031 17.3398 21.1016 16.9883C22 16.6367 23.0195 16.4609 24.1602 16.4609C25.9102 16.4609 27.2227 16.8594 28.0977 17.6562C28.9727 18.4531 29.4102 19.4688 29.4102 20.7031Z" fill="#0B76DB"/>
<circle cx="24.5" cy="24.8398" r="23" stroke="#0B76DB" stroke-width="2"/>
</svg>
